<svg width="73" height="72" viewBox="0 0 73 72" fill="none" xmlns="http://www.w3.org/2000/svg">
<path opacity="0.5" d="M72.0211 0.4864L54.3953 66.2992C54.3057 66.5979 53.9472 66.6876 53.7381 66.4784L41.9378 54.6781L50.7806 21.6971C50.8702 21.3983 50.6013 21.1294 50.3026 21.2191L17.3215 30.0618L5.58095 18.3213C5.37183 18.1122 5.46145 17.7537 5.76019 17.664L71.5431 0.00841294C71.8419 -0.0513354 72.1107 0.217532 72.0211 0.4864Z" fill="#00B37E"/>
<path opacity="0.5" d="M41.9378 54.6786L37.3969 71.7068C37.3073 72.0056 36.9488 72.0952 36.7397 71.8861L0.113969 35.2902C-0.09515 35.0811 -0.00552798 34.7226 0.293214 34.633L17.3215 30.0623L41.9378 54.6786Z" fill="#00B37E"/>
<path d="M50.7808 21.6969L41.938 54.678L17.3218 30.0617L50.3028 21.2189C50.6015 21.1293 50.8704 21.3982 50.7808 21.6969Z" fill="#00B37E"/>
</svg>
